<?xml version="1.0" standalone="no"?>
<!DOCTYPE svg PUBLIC "-//W3C//DTD SVG 20010904//EN"
 "http://www.w3.org/TR/2001/REC-SVG-20010904/DTD/svg10.dtd">
<svg version="1.0" xmlns="http://www.w3.org/2000/svg"
 width="260.000000pt" height="260.000000pt" viewBox="0 0 260.000000 260.000000"
 preserveAspectRatio="xMidYMid meet">
<metadata>
Created by potrace 1.11, written by Peter Selinger 2001-2013
</metadata>
<g transform="translate(0.000000,260.000000) scale(0.100000,-0.100000)"
fill="#000000" stroke="none">
<path d="M462 2119 c-195 -33 -324 -139 -366 -304 -45 -172 8 -307 188 -474
205 -191 324 -316 352 -371 24 -46 28 -67 29 -130 0 -85 -20 -133 -77 -186
-59 -56 -94 -69 -188 -69 -140 0 -218 53 -228 155 -8 89 43 150 127 150 67 0
121 -43 121 -95 0 -39 -16 -55 -52 -55 -33 0 -47 24 -29 51 9 16 8 19 -9 19
-29 0 -60 -36 -60 -69 0 -17 10 -42 23 -57 31 -36 114 -44 167 -17 82 42 94
186 22 267 -28 31 -113 66 -162 66 -136 0 -226 -86 -238 -226 -13 -162 93
-268 304 -305 254 -44 506 75 580 274 28 77 26 242 -4 316 -53 128 -98 171
-354 343 -256 171 -308 229 -308 341 0 103 57 188 159 236 49 23 69 26 162 26
98 0 110 -2 164 -30 135 -69 166 -217 68 -326 -99 -109 -313 -61 -313 70 0 69
98 124 155 87 46 -30 22 -86 -37 -86 -25 0 -28 -2 -19 -14 18 -22 66 -29 106
-16 104 34 98 164 -9 205 -93 36 -223 0 -273 -74 -71 -105 -25 -241 102 -306
54 -27 67 -30 159 -30 115 0 165 17 234 79 60 55 87 123 87 226 0 73 -4 92
-27 136 -81 155 -309 234 -556 193z"/>
<path d="M1735 2075 c-221 -48 -396 -223 -471 -470 -25 -82 -27 -105 -27 -245
0 -128 3 -169 21 -235 45 -163 128 -301 249 -415 178 -168 430 -217 633 -122
34 16 82 52 126 96 114 113 180 272 206 492 6 57 10 105 7 107 -6 5 -622 148
-624 145 -1 -2 -5 -35 -7 -73 l-5 -71 171 -39 171 -40 -200 -19 c-110 -10
-201 -20 -203 -21 -8 -6 23 -135 32 -135 6 1 101 9 211 19 110 10 202 17 205
14 11 -10 -32 -172 -63 -237 -42 -88 -75 -128 -136 -164 -41 -24 -56 -27 -131
-26 -126 1 -209 43 -280 142 -66 92 -85 165 -84 322 1 116 5 147 28 225 53
175 165 356 266 430 135 99 309 125 405 59 29 -19 43 -23 66 -16 l31 7 -43 64
c-116 174 -332 255 -554 206z m7 -192 c22 -20 23 -70 1 -95 -36 -40 -113 -8
-113 49 0 55 70 85 112 46z m-181 -132 c36 -36 37 -70 3 -110 -19 -23 -34 -31
-59 -31 -39 0 -85 46 -85 87 0 33 51 83 85 83 16 0 38 -12 56 -29z m-99 -228
c40 -36 8 -113 -47 -113 -54 0 -85 71 -48 112 20 22 70 23 95 1z"/>
</g>
</svg>
